<svg width="291" height="340" viewBox="0 0 291 340" fill="none" xmlns="http://www.w3.org/2000/svg">
<circle cx="145" cy="216" r="124" fill="#4157FF" fill-opacity="0.06"/>
<mask id="mask0_1_2785" style="mask-type:alpha" maskUnits="userSpaceOnUse" x="0" y="0" width="291" height="340">
<ellipse cx="145.5" cy="170" rx="145.5" ry="170" fill="url(#paint0_linear_1_2785)"/>
</mask>
<g mask="url(#mask0_1_2785)">
<path d="M320 306.144H-33V306.321H320V306.144Z" fill="#EBEBEB"/>
<path d="M274.583 317.504H261.247V317.68H274.583V317.504Z" fill="#EBEBEB"/>
<path d="M194.699 316.275H173.893V316.452H194.699V316.275Z" fill="#EBEBEB"/>
<path d="M260.54 310.952H227.281V311.129H260.54V310.952Z" fill="#EBEBEB"/>
<path d="M11.7817 312.138H4.03687V312.315H11.7817V312.138Z" fill="#EBEBEB"/>
<path d="M45.2882 312.138H18.0648V312.315H45.2882V312.138Z" fill="#EBEBEB"/>
<path d="M125.956 315.118H87.7262V315.294H125.956V315.118Z" fill="#EBEBEB"/>
<path d="M274.583 317.504H261.247V317.68H274.583V317.504Z" fill="#EBEBEB"/>
<path d="M194.699 316.275H173.893V316.452H194.699V316.275Z" fill="#EBEBEB"/>
<path d="M260.54 310.952H227.281V311.129H260.54V310.952Z" fill="#EBEBEB"/>
<path d="M11.7817 312.138H4.03687V312.315H11.7817V312.138Z" fill="#EBEBEB"/>
<path d="M45.2882 312.138H18.0648V312.315H45.2882V312.138Z" fill="#EBEBEB"/>
<path d="M125.956 315.118H87.7262V315.294H125.956V315.118Z" fill="#EBEBEB"/>
<path d="M108.737 294.35C112.771 284.61 108.146 273.443 98.405 269.408C88.6643 265.373 77.4971 269.999 73.4624 279.739C69.4277 289.48 74.0533 300.647 83.7939 304.682C93.5346 308.717 104.702 304.091 108.737 294.35Z" fill="#E0E0E0"/>
<path d="M46.842 294.355C50.8768 284.614 46.2511 273.447 36.5105 269.412C26.7698 265.378 15.6026 270.003 11.5678 279.744C7.53312 289.485 12.1587 300.652 21.8994 304.687C31.6401 308.721 42.8073 304.096 46.842 294.355Z" fill="#E6E6E6"/>
<path d="M29.2058 277.622C31.0789 277.621 32.9103 278.175 34.4683 279.215C36.0263 280.254 37.2408 281.733 37.9583 283.463C38.6757 285.193 38.8638 287.098 38.4987 288.935C38.1336 290.772 37.2318 292.459 35.9073 293.784C34.5829 295.108 32.8953 296.01 31.0581 296.375C29.2209 296.74 27.3168 296.552 25.5865 295.835C23.8563 295.117 22.3777 293.903 21.338 292.345C20.2982 290.787 19.744 288.955 19.7454 287.082C19.7491 284.574 20.747 282.17 22.5204 280.397C24.2937 278.624 26.6979 277.626 29.2058 277.622ZM29.2058 274.798C26.7745 274.798 24.3977 275.519 22.3763 276.87C20.3548 278.221 18.7794 280.141 17.8493 282.387C16.9192 284.634 16.6762 287.105 17.151 289.49C17.6258 291.874 18.7972 294.065 20.5169 295.783C22.2366 297.502 24.4274 298.672 26.8122 299.146C29.1969 299.619 31.6686 299.375 33.9144 298.443C36.1603 297.512 38.0794 295.935 39.4292 293.913C40.7789 291.891 41.4986 289.514 41.4972 287.082C41.4972 285.469 41.1793 283.871 40.5615 282.38C39.9437 280.889 39.0382 279.534 37.8967 278.393C36.7553 277.253 35.4002 276.348 33.909 275.731C32.4177 275.114 30.8196 274.797 29.2058 274.798Z" fill="#F5F5F5"/>
<path d="M226.427 260.099H221.831V268.628H226.427V260.099Z" fill="#F5F5F5"/>
<path fill-rule="evenodd" clip-rule="evenodd" d="M146.524 149.309C152.402 150.263 157.511 153.085 161.343 157.071L161.441 157.087C173.325 159.016 182.346 167.901 185.021 178.908C187.908 179.415 190.674 180.784 192.904 183.014C198.678 188.787 198.678 198.148 192.904 203.921C188.486 208.34 181.967 209.377 176.562 207.032C170.223 212.916 161.333 215.92 152.134 214.426C146.068 213.442 140.748 210.645 136.638 206.679C136.6 206.716 136.563 206.754 136.526 206.792C127.38 215.937 112.553 215.937 103.407 206.792C102.696 206.08 102.04 205.335 101.44 204.56C99.4521 205.788 97.1099 206.497 94.6021 206.497C87.4082 206.497 81.5764 200.665 81.5764 193.471C81.5764 186.277 87.4082 180.445 94.6021 180.445C95.9347 180.445 97.2205 180.645 98.4311 181.017C99.5717 178.349 101.23 175.85 103.407 173.673C107.278 169.803 112.166 167.57 117.211 166.976C121.258 154.912 133.554 147.203 146.524 149.309Z" fill="white" fill-opacity="0.5"/>
<path fill-rule="evenodd" clip-rule="evenodd" d="M237.413 162.584C238.601 162.584 239.763 162.474 240.89 162.264C243.918 165.408 248.172 167.364 252.882 167.364C260.114 167.364 266.269 162.752 268.567 156.309C273.659 154.786 276.742 149.535 275.505 144.294C274.222 138.856 268.773 135.488 263.335 136.772C263.01 136.848 262.693 136.94 262.384 137.045C259.856 135.285 256.816 134.208 253.533 134.081C250.241 128.621 244.254 124.969 237.413 124.969C230.859 124.969 225.087 128.321 221.721 133.405C221.327 133.373 220.928 133.356 220.525 133.356C212.633 133.356 206.236 139.754 206.236 147.645C206.236 155.537 212.633 161.935 220.525 161.935C223.182 161.935 225.67 161.21 227.801 159.946C230.614 161.622 233.901 162.584 237.413 162.584Z" fill="white" fill-opacity="0.4"/>
<path fill-rule="evenodd" clip-rule="evenodd" d="M33.943 135.639C38.0422 135.639 41.7437 137.342 44.379 140.078C45.3623 139.894 46.3765 139.798 47.4132 139.798C50.4675 139.798 53.3265 140.634 55.7735 142.09C56.8272 141.468 57.9912 140.992 59.2446 140.697C65.9311 139.118 72.631 143.26 74.2092 149.946C75.7874 156.633 71.6462 163.333 64.9596 164.911C63.6506 165.22 62.341 165.309 61.0694 165.204C58.1381 169.626 53.1162 172.542 47.4132 172.542C41.4557 172.542 36.2414 169.36 33.3771 164.603C30.5232 164.493 27.881 163.558 25.6825 162.029C22.6022 163.085 19.0529 162.385 16.5952 159.927C13.1571 156.489 13.1571 150.914 16.5952 147.476C17.6636 146.408 18.9382 145.672 20.2909 145.267C22.2882 139.656 27.6465 135.639 33.943 135.639Z" fill="white" fill-opacity="0.3"/>
<path d="M143.5 338.027C219.1 338.027 280.386 334.449 280.386 330.036C280.386 325.622 219.1 322.044 143.5 322.044C67.8998 322.044 6.61365 325.622 6.61365 330.036C6.61365 334.449 67.8998 338.027 143.5 338.027Z" fill="black" fill-opacity="0.2"/>
<path d="M66.3837 290.217H19.3218V327.684H66.3837V290.217Z" fill="#828282"/>
<path opacity="0.7" d="M66.3837 290.217H19.3218V327.684H66.3837V290.217Z" fill="white"/>
<path opacity="0.4" d="M66.3839 290.217H49.7294V327.684H66.3839V290.217Z" fill="#828282"/>
<path d="M62.3102 308.947C62.3102 312.879 60.6864 316.063 58.6813 316.063C56.6763 316.063 55.0525 312.879 55.0525 308.947C55.0525 305.014 56.6763 301.837 58.6813 301.837C60.6864 301.837 62.3102 305.022 62.3102 308.947Z" fill="white"/>
<path d="M59.3593 304.57H57.9967V313.324H59.3593V304.57Z" fill="#828282"/>
<path d="M61.2721 310.105V307.796H56.0901V310.105H61.2721Z" fill="#828282"/>
<path opacity="0.7" d="M31.5496 327.677H37.4941V313.508H31.5496V327.677Z" fill="white"/>
<path opacity="0.7" d="M31.5496 296.86H37.4941V290.217H31.5496V296.86Z" fill="white"/>
<path d="M104.119 290.217H57.0574V327.684H104.119V290.217Z" fill="#828282"/>
<path opacity="0.7" d="M104.119 290.217H57.0574V327.684H104.119V290.217Z" fill="white"/>
<path opacity="0.4" d="M104.112 290.217H87.4578V327.684H104.112V290.217Z" fill="#828282"/>
<path d="M100.039 308.947C100.039 312.879 98.415 316.063 96.41 316.063C94.4049 316.063 92.7811 312.879 92.7811 308.947C92.7811 305.014 94.4049 301.837 96.41 301.837C98.415 301.837 100.039 305.022 100.039 308.947Z" fill="white"/>
<path d="M97.0877 304.57H95.7251V313.324H97.0877V304.57Z" fill="#828282"/>
<path d="M99.0011 310.105V307.796H93.8191V310.105H99.0011Z" fill="#828282"/>
<path opacity="0.7" d="M75.2299 290.217H69.2854V304.386H75.2299V290.217Z" fill="white"/>
<path opacity="0.7" d="M75.2299 321.034H69.2854V327.677H75.2299V321.034Z" fill="white"/>
<path d="M88.5942 261.567H41.5322V290.217H88.5942V261.567Z" fill="#828282"/>
<path opacity="0.7" d="M88.5942 261.567H41.5322V290.217H88.5942V261.567Z" fill="white"/>
<path opacity="0.4" d="M88.5944 261.567H71.9398V290.217H88.5944V261.567Z" fill="#828282"/>
<path d="M80.8854 283.008C82.8896 283.008 84.5143 279.822 84.5143 275.892C84.5143 271.962 82.8896 268.775 80.8854 268.775C78.8813 268.775 77.2566 271.962 77.2566 275.892C77.2566 279.822 78.8813 283.008 80.8854 283.008Z" fill="white"/>
<path d="M81.57 271.515H80.2074V280.269H81.57V271.515Z" fill="#828282"/>
<path d="M83.4762 277.05V274.741H78.2942V277.05H83.4762Z" fill="#828282"/>
<path opacity="0.7" d="M59.705 261.567H53.7605V271.324H59.705V261.567Z" fill="white"/>
<path opacity="0.7" d="M59.705 283.573H53.7605V290.217H59.705V283.573Z" fill="white"/>
<path d="M97.193 146.306L99.7276 150.542C100.596 151.954 101.457 153.366 102.347 154.728C104.112 157.503 105.94 160.221 107.861 162.791C108.334 163.448 108.835 164.055 109.315 164.69C109.562 165.008 109.816 165.297 110.063 165.601L110.438 166.06L110.628 166.286C110.628 166.321 110.628 166.286 110.628 166.286L110.565 166.229L110.438 166.137C110.099 165.919 109.965 165.94 110 165.975C110.13 166.063 110.281 166.117 110.438 166.13C111.045 166.221 111.66 166.249 112.273 166.215C115.44 165.963 118.587 165.515 121.698 164.874L123.449 169.046C121.931 170.029 120.34 170.895 118.691 171.637C116.986 172.433 115.208 173.062 113.382 173.515C112.321 173.78 111.234 173.93 110.141 173.96C109.442 173.979 108.744 173.919 108.058 173.783C107.065 173.586 106.129 173.169 105.319 172.562C105.194 172.47 105.074 172.371 104.959 172.265L104.775 172.096L104.641 171.969L104.401 171.722L103.921 171.235C103.603 170.903 103.272 170.578 102.968 170.246C102.368 169.54 101.726 168.919 101.168 168.234C98.8684 165.532 96.7212 162.703 94.7361 159.762C93.7548 158.35 92.7946 156.846 91.9121 155.357C91.0296 153.867 90.1259 152.385 89.2576 150.761L97.193 146.306Z" fill="#FF8B7B"/>
<path d="M120.138 165.961L125.193 161.245L128.956 166.985C128.956 166.985 125.553 171.136 121.501 169.251L120.138 165.961Z" fill="#828282"/>
<path d="M131.498 160.292L132.204 163.433C132.262 163.691 132.246 163.961 132.159 164.21C132.072 164.46 131.916 164.68 131.71 164.845L128.977 167.006L125.214 161.266L129.584 159.346C129.771 159.267 129.972 159.23 130.175 159.236C130.377 159.242 130.576 159.292 130.757 159.382C130.939 159.472 131.099 159.599 131.226 159.756C131.354 159.913 131.447 160.096 131.498 160.292Z" fill="#828282"/>
<path d="M111.645 323.314C111.621 323.303 111.601 323.285 111.587 323.263C111.573 323.24 111.566 323.214 111.567 323.187C111.566 323.158 111.574 323.129 111.591 323.105C111.607 323.08 111.631 323.062 111.659 323.053C111.949 322.947 114.483 322.058 115.189 322.566C115.251 322.614 115.3 322.676 115.333 322.748C115.365 322.819 115.378 322.897 115.373 322.975C115.368 323.104 115.333 323.231 115.27 323.343C115.208 323.456 115.12 323.553 115.013 323.625C114.307 324.119 112.598 323.625 111.659 323.321L111.645 323.314ZM114.97 322.764C114.54 322.545 113.17 322.863 112.146 323.187C113.438 323.583 114.427 323.66 114.836 323.385C114.909 323.34 114.97 323.277 115.011 323.201C115.052 323.125 115.072 323.04 115.069 322.954C115.074 322.923 115.07 322.891 115.058 322.863C115.045 322.834 115.025 322.809 114.998 322.792L114.97 322.764Z" fill="#828282"/>
<path d="M112.81 320.984C112.929 320.905 113.063 320.851 113.204 320.827C113.345 320.803 113.49 320.808 113.629 320.843C114.01 320.935 114.095 321.147 114.095 321.309C114.095 322.015 112.506 323.102 111.744 323.328C111.728 323.335 111.711 323.338 111.694 323.338C111.677 323.338 111.661 323.335 111.645 323.328C111.628 323.311 111.615 323.29 111.608 323.266C111.6 323.243 111.599 323.218 111.603 323.194C111.581 323.088 111.963 321.5 112.81 320.984ZM113.812 321.316C113.812 321.316 113.812 321.224 113.699 321.175L113.558 321.118H113.495C113.308 321.09 113.117 321.13 112.958 321.231C112.441 321.69 112.076 322.296 111.913 322.968C112.711 322.615 113.848 321.733 113.848 321.316H113.812Z" fill="#828282"/>
<path d="M105.976 323.851L111.991 323.759L111.617 309.766L105.595 309.865L105.976 323.851Z" fill="#FF8B7B"/>
<path d="M112.062 323.06L105.489 323.166C105.373 323.164 105.26 323.205 105.174 323.282C105.088 323.36 105.034 323.467 105.023 323.582L104.451 328.962C104.44 329.098 104.458 329.235 104.503 329.363C104.548 329.492 104.619 329.61 104.712 329.709C104.805 329.809 104.918 329.888 105.043 329.942C105.168 329.995 105.303 330.022 105.439 330.021C107.805 329.943 111.215 329.746 114.194 329.703C117.682 329.647 117.343 329.788 121.43 329.703C123.901 329.668 124.297 327.155 123.238 326.943C118.409 325.983 117.922 325.933 113.566 323.484C113.109 323.216 112.591 323.07 112.062 323.06Z" fill="#263238"/>
<path opacity="0.2" d="M111.617 309.773L111.807 316.981L105.792 317.08L105.595 309.865L111.617 309.773Z" fill="black"/>
<path d="M97.6872 119.69C97.4542 124.201 97.8566 133.061 94.5737 135.928C96.8259 138.363 100.554 140.305 105.792 140.629C111.031 140.954 109.837 138.024 108.574 136.097C103.716 134.791 104.585 130.449 105.665 127.088L97.6872 119.69Z" fill="#FF8B7B"/>
<path d="M92.2864 135.2C92.4135 133.937 93.2042 131.402 96.6071 132.278C100.01 133.153 104.027 132.842 107.084 133.019C110.141 133.195 110.311 137.029 110.311 137.029L92.2864 135.2Z" fill="#828282"/>
<path d="M93.515 134.353C100.766 134.276 109.809 135.158 114.695 136.704C115.327 136.902 115.883 137.288 116.289 137.81C116.695 138.332 116.932 138.966 116.968 139.627C117.258 145.092 118.049 163.08 118.733 191.123L86.4762 191.645C86.6892 176.149 85.8423 160.656 83.9416 145.275C83.7734 143.914 83.8948 142.533 84.298 141.222C84.7011 139.911 85.3768 138.7 86.2808 137.669C87.1848 136.638 88.2967 135.809 89.5434 135.238C90.7902 134.666 92.1436 134.365 93.515 134.353Z" fill="#090F47"/>
<path d="M168.207 148.722L123.51 142.853L119.937 170.063L164.634 175.932L168.207 148.722Z" fill="#828282"/>
<path opacity="0.7" d="M168.207 148.722L123.51 142.853L119.937 170.063L164.634 175.932L168.207 148.722Z" fill="white"/>
<path opacity="0.4" d="M168.768 148.534L138.422 144.615L134.901 171.873L165.247 175.792L168.768 148.534Z" fill="#828282"/>
<path d="M159.557 161.206C160.039 157.466 157.471 154.053 153.82 153.582C150.17 153.112 146.819 155.761 146.337 159.501C145.855 163.24 148.423 166.653 152.073 167.124C155.724 167.595 159.074 164.945 159.557 161.206Z" fill="white"/>
<path d="M154.748 156.352L152.262 156.031L151.187 164.356L153.673 164.677L154.748 156.352Z" fill="#828282"/>
<path d="M157.55 162.069L157.833 159.877L148.387 158.657L148.104 160.849L157.55 162.069Z" fill="#828282"/>
<path opacity="0.7" d="M132.227 143.813L129.651 143.48L128.451 152.764L131.028 153.097L132.227 143.813Z" fill="white"/>
<path opacity="0.7" d="M129.522 164.752L126.945 164.42L126.129 170.742L128.705 171.075L129.522 164.752Z" fill="white"/>
<path d="M119.058 144.618C119.213 145.324 119.425 146.186 119.615 146.976L120.223 149.405C120.653 151.022 121.091 152.632 121.578 154.22C122.065 155.809 122.559 157.383 123.131 158.922C123.703 160.461 124.275 161.972 124.946 163.412C125.277 164.118 125.616 164.824 125.976 165.53C126.153 165.883 126.344 166.236 126.527 166.547L126.817 167.034L126.958 167.274V167.239L126.88 167.147C126.827 167.085 126.771 167.026 126.711 166.97C126.508 166.777 126.268 166.628 126.005 166.533C125.901 166.483 125.788 166.456 125.673 166.455C125.588 166.455 125.729 166.54 125.934 166.561C126.547 166.581 127.16 166.536 127.763 166.427C130.969 165.754 134.131 164.884 137.23 163.822L139.461 167.761C138.038 168.951 136.533 170.039 134.957 171.016C133.316 172.038 131.58 172.901 129.775 173.593C128.705 174 127.591 174.279 126.457 174.426C125.679 174.534 124.89 174.534 124.113 174.426C123.57 174.333 123.042 174.174 122.538 173.953C121.894 173.66 121.306 173.256 120.801 172.76C120.665 172.625 120.535 172.484 120.413 172.336L120.237 172.11L120.138 171.969L119.919 171.665L119.495 171.016C119.227 170.606 118.945 170.197 118.691 169.787C118.168 168.961 117.681 168.128 117.236 167.288C115.495 163.991 114.035 160.552 112.873 157.009C112.294 155.265 111.772 153.521 111.306 151.749C111.073 150.874 110.854 149.984 110.649 149.087C110.444 148.191 110.275 147.329 110.091 146.334L119.058 144.618Z" fill="#FF8B7B"/>
<path d="M107.338 139.994C104.458 145.063 112.181 161.972 112.181 161.972L124.183 157.404C124.183 157.404 123.725 148.848 120.569 142.232C117.293 135.448 110.494 134.438 107.338 139.994Z" fill="#090F47"/>
<path d="M145.498 161.301L143.323 161.492C142.075 161.596 140.854 161.909 139.709 162.417L136.454 163.829C136.247 163.921 136.081 164.087 135.99 164.294C135.898 164.502 135.888 164.736 135.96 164.951L137.231 168.799C137.296 168.998 137.428 169.168 137.604 169.281C137.78 169.395 137.99 169.444 138.198 169.42C139.921 169.291 141.615 168.905 143.224 168.276L145.992 167.154C146.205 167.049 146.385 166.886 146.51 166.684C146.635 166.481 146.7 166.248 146.698 166.01L146.832 162.833C146.849 162.644 146.827 162.454 146.768 162.274C146.709 162.094 146.615 161.927 146.49 161.784C146.366 161.641 146.214 161.525 146.043 161.442C145.873 161.359 145.687 161.311 145.498 161.301Z" fill="#828282"/>
<path d="M138.382 164.506C139.031 163.751 139.794 160.602 139.349 159.79C138.904 158.978 138.156 161.047 137.69 161.598C136.398 163.123 135.317 164.669 136.235 165.128C137.153 165.587 137.238 165.827 138.382 164.506Z" fill="#828282"/>
<path d="M112.358 116.011C112.4 116.498 112.69 116.866 113.007 116.837C113.325 116.809 113.544 116.393 113.509 115.905C113.473 115.418 113.177 115.051 112.859 115.086C112.541 115.122 112.315 115.531 112.358 116.011Z" fill="#263238"/>
<path d="M111.772 115.983C112.472 117.41 113.365 118.733 114.427 119.915C114.117 120.182 113.754 120.377 113.361 120.49C112.969 120.602 112.557 120.627 112.153 120.565L111.772 115.983Z" fill="#FF5652"/>
<path d="M110.713 113.526C110.664 113.52 110.617 113.505 110.572 113.484C110.54 113.464 110.513 113.438 110.491 113.407C110.47 113.376 110.454 113.341 110.446 113.304C110.439 113.267 110.438 113.229 110.445 113.192C110.452 113.155 110.467 113.12 110.487 113.089C110.715 112.691 111.035 112.355 111.422 112.109C111.808 111.863 112.248 111.715 112.704 111.677C112.742 111.675 112.779 111.68 112.814 111.693C112.849 111.706 112.881 111.726 112.908 111.752C112.935 111.778 112.957 111.809 112.971 111.843C112.986 111.878 112.994 111.915 112.994 111.952C112.995 111.99 112.988 112.028 112.974 112.063C112.961 112.099 112.94 112.131 112.914 112.159C112.888 112.186 112.856 112.208 112.822 112.224C112.787 112.239 112.749 112.248 112.711 112.248C112.353 112.283 112.008 112.402 111.705 112.596C111.402 112.79 111.149 113.053 110.968 113.364C110.944 113.412 110.908 113.452 110.863 113.481C110.818 113.509 110.767 113.525 110.713 113.526Z" fill="#263238"/>
<path d="M95.8023 115.298C96.6565 121.215 96.8613 124.723 100.116 127.505C105.016 131.685 112.118 128.289 113.071 122.217C113.911 116.76 112.365 107.998 106.35 106.163C105.016 105.756 103.601 105.694 102.237 105.983C100.873 106.272 99.6049 106.902 98.551 107.815C97.4971 108.728 96.692 109.893 96.2113 111.202C95.7305 112.511 95.5898 113.92 95.8023 115.298Z" fill="#FF8B7B"/>
<path d="M110.021 118.292C110.371 118.081 110.671 117.798 110.9 117.46C111.13 117.122 111.283 116.739 111.35 116.337C111.417 115.934 111.396 115.522 111.289 115.128C111.181 114.734 110.99 114.368 110.727 114.056C109.767 112.919 108.065 110.956 109.026 110.123C109.986 109.29 114.928 107.596 113.106 104.186C111.285 100.776 107.458 98.6862 104.917 101.221C102.375 103.755 101.598 102.442 97.4966 101.927C93.3947 101.411 91.5591 105.591 92.957 107.25C94.3549 108.909 89.2928 109.742 90.9519 111.924C87.8526 113.533 90.8602 118.602 93.31 120.784C95.7598 122.966 94.0936 126.63 98.252 127.985C102.41 129.341 111.899 123.008 110.021 118.292Z" fill="#263238"/>
<path d="M109.661 126.213C109.592 126.213 109.525 126.195 109.465 126.16C109.405 126.125 109.356 126.076 109.322 126.015C109.188 125.797 106.089 120.523 108.242 117.543C108.983 116.527 109.753 116.047 110.544 116.131C111.85 116.23 112.782 117.748 113.452 119.054C113.5 119.148 113.509 119.257 113.476 119.357C113.444 119.457 113.373 119.54 113.279 119.587C113.186 119.635 113.077 119.644 112.977 119.611C112.877 119.579 112.794 119.508 112.746 119.414C112.436 118.814 111.504 116.993 110.473 116.915C109.972 116.915 109.435 117.247 108.871 118.024C107.021 120.572 109.958 125.571 109.993 125.62C110.045 125.711 110.059 125.819 110.033 125.921C110.007 126.022 109.942 126.109 109.852 126.164C109.793 126.195 109.728 126.212 109.661 126.213Z" fill="#828282"/>
<path d="M71.7771 321.267C71.7523 321.258 71.7308 321.242 71.7156 321.22C71.7005 321.199 71.6923 321.173 71.6924 321.147C71.6899 321.117 71.6968 321.088 71.712 321.063C71.7272 321.037 71.75 321.017 71.7771 321.006C72.0595 320.879 74.5446 319.791 75.2506 320.243C75.3186 320.284 75.3746 320.342 75.413 320.411C75.4514 320.481 75.4709 320.559 75.4695 320.638C75.4816 320.773 75.4595 320.908 75.4052 321.032C75.3508 321.155 75.2661 321.263 75.1588 321.344C74.4528 321.888 72.7584 321.549 71.7983 321.302L71.7771 321.267ZM75.0529 320.455C74.6082 320.271 73.2668 320.702 72.2854 321.097C73.5986 321.394 74.594 321.394 74.9823 321.097C75.0514 321.045 75.1059 320.977 75.1406 320.897C75.1752 320.818 75.1888 320.732 75.18 320.646C75.1831 320.615 75.1774 320.584 75.1637 320.557C75.1499 320.529 75.1287 320.506 75.1024 320.49L75.0529 320.455Z" fill="#828282"/>
<path d="M72.7589 318.845C72.9912 318.677 73.2799 318.606 73.5637 318.647C73.952 318.711 74.0579 318.923 74.072 319.078C74.1426 319.784 72.66 320.984 71.8834 321.274C71.8513 321.284 71.8166 321.284 71.7846 321.274H71.7422C71.7241 321.255 71.7103 321.233 71.7018 321.209C71.6933 321.184 71.6902 321.158 71.6928 321.132C71.6999 321.048 71.954 319.431 72.7589 318.845ZM73.7896 319.106C73.7896 319.106 73.7896 319.021 73.6625 318.972L73.5143 318.93H73.3943C73.2243 318.931 73.059 318.985 72.9212 319.085C72.4441 319.583 72.1333 320.217 72.0317 320.899C72.7942 320.49 73.832 319.523 73.7896 319.106Z" fill="#828282"/>
<path d="M65.7128 320.66L71.5231 322.178L75.4485 308.7L69.6381 307.189L65.7128 320.66Z" fill="#FF8B7B"/>
<path d="M71.9399 321.013L65.5858 319.354C65.4744 319.323 65.3557 319.335 65.2526 319.387C65.1495 319.44 65.0695 319.528 65.0281 319.636L63.016 324.663C62.9697 324.793 62.9515 324.932 62.9627 325.07C62.9738 325.208 63.0141 325.342 63.0807 325.464C63.1474 325.585 63.239 325.691 63.3496 325.774C63.4601 325.858 63.587 325.917 63.722 325.948C66.0236 326.505 66.7931 326.519 69.6807 327.275C73.0483 328.15 73.6343 329.986 77.722 330.021C80.193 330.021 80.6519 327.55 79.6 327.303C76.2676 326.519 74.3685 323.618 73.2954 321.846C72.969 321.402 72.4828 321.104 71.9399 321.013Z" fill="#263238"/>
<path opacity="0.2" d="M75.4482 308.7L73.422 315.647L67.6116 314.136L69.6378 307.189L75.4482 308.7Z" fill="black"/>
<path d="M79.6424 249.212C83.1159 226.571 81.6333 204.53 86.5047 191.645L107.819 191.299C107.819 191.299 98.5703 232.579 94.4049 250.603C90.0841 269.376 76.3595 312.929 76.3595 312.929L66.9556 310.465C66.9556 310.465 74.1144 265.542 79.6424 249.212Z" fill="#828282"/>
<path opacity="0.2" d="M95.0327 230.045C95.0327 234.521 95.3645 239.364 95.8164 244.532C98.5627 232.452 102.41 215.367 104.994 203.831C97.1719 209.676 95.0327 218.664 95.0327 230.045Z" fill="black"/>
<path d="M106.943 118.892C107.118 119.498 107.412 120.064 107.807 120.556C108.202 121.048 108.691 121.457 109.245 121.758C110.734 122.563 111.864 121.321 111.765 119.718C111.681 118.306 110.805 116.139 109.153 115.997C108.793 115.973 108.432 116.038 108.104 116.186C107.775 116.335 107.488 116.563 107.269 116.85C107.05 117.137 106.906 117.474 106.849 117.83C106.792 118.186 106.824 118.551 106.943 118.892Z" fill="#FF8B7B"/>
<path d="M112.577 117.24C114.427 117.572 114.695 119.464 114.695 120.297C114.695 121.13 113.029 127.456 109.64 128.656C106.251 129.856 106.251 129.044 106.753 128.183C107.254 127.322 111.815 123.043 112.577 117.24Z" fill="#828282"/>
<path d="M101.747 249.382C98.8453 225.667 94.934 204.021 97.9628 191.426L118.74 191.094C118.74 191.094 117.533 233.327 116.531 251.669C115.486 270.731 114.024 315.527 114.024 315.527L103.816 315.682C103.816 315.682 100.335 273.343 101.747 249.382Z" fill="#828282"/>
<path d="M114.66 315.774L102.524 315.965L101.839 312.032L115.366 311.609L114.66 315.774Z" fill="#263238"/>
<path d="M77.1218 315.252L65.381 312.195L65.7693 308.22L78.9221 311.432L77.1218 315.252Z" fill="#263238"/>
<path d="M212.448 117.416C205.028 123.41 203.143 133.09 205.812 137.474C209.61 143.708 224.874 145.36 232.11 141.611C235.478 139.86 238.521 120.05 228.75 116.266C225.057 110.935 216.642 114.021 212.448 117.416Z" fill="#263238"/>
<path d="M239.057 307.345L233.67 311.178L218.562 296.811L225.071 289.765L239.057 307.345Z" fill="#FFC3BD"/>
<path d="M232.887 309.808L238.344 304.76C238.433 304.662 238.556 304.602 238.687 304.593C238.819 304.583 238.949 304.626 239.05 304.711L243.336 308.184C243.44 308.284 243.522 308.404 243.576 308.537C243.631 308.671 243.657 308.814 243.652 308.958C243.647 309.102 243.612 309.243 243.549 309.373C243.486 309.502 243.397 309.617 243.286 309.709C241.359 311.439 240.349 312.18 237.949 314.404C236.473 315.767 233.551 318.732 231.51 320.617C229.47 322.502 227.656 320.716 228.347 319.763C231.461 315.47 231.997 313.028 232.365 310.839C232.425 310.449 232.608 310.087 232.887 309.808Z" fill="#263238"/>
<path d="M231.785 312.286C231.413 312.701 230.918 312.985 230.373 313.098C230.237 313.112 230.099 313.089 229.974 313.031C229.85 312.972 229.744 312.881 229.667 312.766C229.616 312.7 229.583 312.622 229.571 312.539C229.559 312.456 229.567 312.372 229.597 312.293C229.914 311.439 232.696 310.578 233.007 310.479C233.036 310.471 233.068 310.473 233.096 310.483C233.125 310.493 233.151 310.511 233.169 310.536C233.186 310.562 233.195 310.592 233.195 310.624C233.195 310.655 233.186 310.686 233.169 310.712C232.754 311.276 232.291 311.802 231.785 312.286ZM230.07 312.145C229.991 312.21 229.928 312.292 229.886 312.385C229.874 312.416 229.871 312.45 229.878 312.482C229.884 312.515 229.899 312.545 229.921 312.569C229.968 312.643 230.034 312.703 230.113 312.743C230.191 312.783 230.279 312.801 230.366 312.795C230.882 312.795 231.722 312.089 232.647 310.91C231.727 311.181 230.857 311.598 230.07 312.145Z" fill="#FFA41B"/>
<path d="M233.162 310.733L233.105 310.769C232.301 311.058 230.281 311.136 229.893 310.536C229.801 310.394 229.759 310.161 230.048 309.83C230.254 309.594 230.542 309.447 230.853 309.42C231.898 309.335 233.12 310.458 233.169 310.507C233.188 310.525 233.202 310.548 233.209 310.572C233.216 310.597 233.217 310.623 233.211 310.649C233.2 310.679 233.183 310.708 233.162 310.733ZM230.338 309.957L230.274 310.027C230.084 310.239 230.14 310.331 230.154 310.359C230.387 310.719 231.863 310.776 232.752 310.564C232.23 310.087 231.565 309.794 230.86 309.731C230.666 309.746 230.482 309.826 230.338 309.957Z" fill="#FFA41B"/>
<path d="M226.773 324.578L220.39 324.797L219.162 302.501L228.029 302.629L226.773 324.578Z" fill="#FFC3BD"/>
<path d="M219.953 322.764L227.119 322.714C227.239 322.708 227.357 322.75 227.447 322.831C227.537 322.911 227.591 323.024 227.599 323.145L228.029 328.793C228.032 328.94 228.006 329.087 227.952 329.224C227.898 329.361 227.818 329.487 227.716 329.593C227.613 329.699 227.491 329.784 227.356 329.843C227.221 329.902 227.075 329.934 226.928 329.936C224.436 329.936 223.243 329.774 220.094 329.795C218.152 329.795 215.307 330.028 212.632 330.049C209.956 330.071 209.991 327.423 211.121 327.176C216.19 326.068 217.079 324.578 218.887 323.152C219.191 322.91 219.565 322.774 219.953 322.764Z" fill="#263238"/>
<path d="M208.96 155.484C208.579 156.987 208.155 158.428 207.725 159.889C207.294 161.351 206.849 162.798 206.362 164.245C205.395 167.14 204.364 170.013 203.072 172.915C202.74 173.621 202.402 174.369 202.013 175.118C201.598 175.931 201.126 176.714 200.601 177.461C200.202 178.03 199.727 178.54 199.189 178.979C198.612 179.415 197.935 179.7 197.219 179.805C196.808 179.866 196.391 179.881 195.977 179.848C195.418 179.783 194.867 179.663 194.332 179.488C193.891 179.361 193.457 179.21 193.033 179.036C191.533 178.403 190.09 177.642 188.719 176.763C187.395 175.922 186.124 175 184.914 174.002C184.593 173.734 184.375 173.364 184.297 172.953C184.218 172.543 184.285 172.118 184.485 171.751C184.684 171.384 185.005 171.097 185.392 170.94C185.78 170.783 186.209 170.765 186.608 170.889H186.665L190.844 172.223C192.154 172.66 193.486 173.03 194.833 173.331C195.117 173.399 195.404 173.446 195.695 173.473C195.877 173.503 196.063 173.503 196.245 173.473C196.245 173.473 196.245 173.473 196.125 173.473C195.778 173.52 195.451 173.661 195.179 173.882L195.101 173.946C195.101 173.946 195.172 173.847 195.236 173.727C195.535 173.227 195.797 172.705 196.019 172.166C196.288 171.573 196.549 170.938 196.803 170.281C197.798 167.655 198.688 164.859 199.549 162.057L200.827 157.821L202.063 153.585C202.332 152.687 202.941 151.931 203.76 151.476C204.579 151.021 205.543 150.904 206.447 151.15C207.351 151.396 208.123 151.985 208.599 152.792C209.075 153.599 209.218 154.56 208.996 155.47L208.96 155.484Z" fill="#4157FF"/>
<path d="M181.864 165.516L179.506 164.944C179.343 164.906 179.173 164.9 179.008 164.928C178.842 164.955 178.684 165.015 178.542 165.105C178.4 165.194 178.277 165.311 178.181 165.448C178.085 165.585 178.017 165.741 177.981 165.904L177.275 169.053C177.215 169.334 177.252 169.626 177.38 169.883C177.509 170.14 177.72 170.345 177.981 170.465L181.645 172.244C182.475 173.244 183.625 173.928 184.9 174.179C185.294 174.213 185.688 174.113 186.02 173.897C186.351 173.681 186.6 173.36 186.728 172.986L186.996 172.244C187.094 171.967 187.124 171.67 187.084 171.379C187.043 171.088 186.933 170.811 186.763 170.571L184.292 167.14C183.704 166.325 182.842 165.749 181.864 165.516Z" fill="#263238"/>
<path d="M184.356 170.571C184.095 169.59 184.737 166.144 185.464 165.516C186.191 164.888 186.135 167.013 186.283 167.832C186.65 169.83 187.476 171.362 186.813 172.696C186.347 173.621 184.801 172.28 184.356 170.571Z" fill="#263238"/>
<path d="M201.483 156.056C201.166 161.661 201.152 170.882 201.978 186.138L227.676 186.978C228.304 177.405 228.918 171.157 234.432 154.128C234.678 153.383 234.76 152.593 234.671 151.813C234.582 151.033 234.325 150.281 233.918 149.61C233.51 148.939 232.962 148.364 232.311 147.925C231.66 147.487 230.922 147.194 230.147 147.068C228.735 146.842 227.175 146.638 225.593 146.511C221.718 146.102 217.817 145.974 213.923 146.129C212.864 146.193 211.77 146.285 210.704 146.391C208.267 146.638 205.999 147.748 204.308 149.52C202.617 151.292 201.616 153.61 201.483 156.056Z" fill="#4157FF"/>
<path d="M213.923 146.151C213.923 146.151 210.266 146.744 213.154 154.552C217.763 152.675 221.982 149.955 225.594 146.532L213.923 146.151Z" fill="white"/>
<path d="M223.346 161.541C223.715 159.622 222.63 157.801 220.922 157.472C219.215 157.144 217.531 158.433 217.162 160.351C216.793 162.269 217.878 164.091 219.586 164.419C221.294 164.748 222.977 163.459 223.346 161.541Z" fill="white"/>
<path opacity="0.2" d="M229.343 156.896C229.018 160.786 228.757 167.45 229.561 171.63C230.14 168.848 230.917 165.735 231.997 162L229.343 156.896Z" fill="black"/>
<path d="M225.848 133.21C224.711 136.98 223.236 143.913 225.594 146.532C225.594 146.532 221.675 149.772 213.733 153.105C210.718 147.019 213.924 146.151 213.924 146.151C218.223 145.275 218.449 142.133 218.032 139.161L225.848 133.21Z" fill="#FFC3BD"/>
<path opacity="0.2" d="M223.687 136.139L218.039 139.154C218.146 139.855 218.193 140.563 218.181 141.272C219.395 141.272 222.48 140.22 223.56 138.201C223.845 137.551 223.89 136.82 223.687 136.139Z" fill="black"/>
<path d="M229.9 125.338C229.194 131.628 229.06 134.304 225.72 137.389C220.701 142.028 213.125 139.811 211.918 133.45C210.831 127.717 212.137 118.398 218.427 116.181C219.812 115.685 221.3 115.552 222.751 115.793C224.202 116.035 225.567 116.643 226.717 117.561C227.866 118.478 228.762 119.674 229.319 121.035C229.876 122.397 230.076 123.878 229.9 125.338Z" fill="#FFC3BD"/>
<path d="M221.266 116.802C216.931 119.301 226.258 128.995 228.616 128.868C232.619 126.51 232.682 121.673 230.451 119.365C228.22 117.056 226.597 113.745 221.266 116.802Z" fill="#263238"/>
<path d="M225.311 134.791C225.211 134.79 225.116 134.752 225.042 134.684C224.969 134.616 224.924 134.524 224.915 134.424C224.906 134.325 224.934 134.226 224.995 134.146C225.055 134.066 225.143 134.012 225.241 133.993C228.065 133.506 229.816 132.581 230.225 131.431C230.318 131.005 230.297 130.563 230.166 130.148C230.035 129.733 229.797 129.36 229.477 129.065C229.354 128.919 229.202 128.801 229.03 128.717C228.859 128.633 228.672 128.586 228.481 128.578C226.801 128.465 224.422 130.597 223.539 131.402L223.356 131.565C223.275 131.633 223.17 131.668 223.065 131.66C222.959 131.652 222.86 131.602 222.791 131.522C222.757 131.483 222.731 131.437 222.715 131.388C222.699 131.338 222.693 131.286 222.696 131.235C222.7 131.183 222.714 131.132 222.738 131.086C222.761 131.04 222.794 130.998 222.833 130.965L223.01 130.802C224.069 129.863 226.54 127.646 228.552 127.78C228.848 127.794 229.137 127.868 229.403 127.998C229.669 128.128 229.906 128.311 230.098 128.536C231.023 129.588 231.34 130.71 230.995 131.699C230.472 133.181 228.594 134.219 225.403 134.784L225.311 134.791Z" fill="#FFA41B"/>
<path d="M225.954 116.322C229.032 117.734 214.891 117.805 211.975 121.525C214.403 117.826 218.018 112.63 225.954 116.322Z" fill="#263238"/>
<path d="M201.978 186.138C201.978 186.138 188.726 242.52 189.905 256.971C191.317 273.866 218.526 298.117 218.526 298.117L226.292 289.645C226.292 289.645 209.864 271.084 203.595 256.555C205.628 242.032 223.814 200.668 223.045 186.83L201.978 186.138Z" fill="#090F47"/>
<path d="M227.93 290.669L218.632 299.035L215.893 297.319L226.052 287.668L227.93 290.669Z" fill="#4F4F4F"/>
<path opacity="0.3" d="M212.243 210.46C204.795 220.775 204.435 239.745 204.901 250.398C207.456 240.606 212.928 226.267 217.192 213.1C217.093 208.038 215.724 205.61 212.243 210.46Z" fill="#4F4F4F"/>
<path d="M206.779 185.92C206.779 185.92 211.989 234.761 213.648 251.45C215.611 271.268 218.491 303.038 218.491 303.038L228.029 302.643C228.029 302.643 230.147 275.709 228.566 257.96C228.848 234.408 232.964 201.543 227.676 186.993L206.779 185.92Z" fill="#090F47"/>
<path d="M228.749 304.372L217.813 304.062L217.051 300.623L229.42 300.277L228.749 304.372Z" fill="#4F4F4F"/>
<path d="M219.614 126.785C219.614 127.3 219.296 127.703 218.964 127.689C218.633 127.675 218.371 127.244 218.4 126.728C218.428 126.213 218.717 125.811 219.049 125.832C219.381 125.853 219.635 126.277 219.614 126.785Z" fill="#263238"/>
<path d="M213.81 126.538C213.81 127.046 213.492 127.448 213.161 127.434C212.829 127.42 212.568 126.99 212.596 126.474C212.624 125.959 212.914 125.563 213.245 125.578C213.577 125.592 213.831 126.001 213.81 126.538Z" fill="#263238"/>
<path d="M213.394 125.592L212.18 125.175C212.18 125.175 212.766 126.171 213.394 125.592Z" fill="#263238"/>
<path d="M215.554 127.378C215.042 128.527 214.374 129.601 213.57 130.569C213.823 130.768 214.117 130.91 214.43 130.984C214.743 131.059 215.069 131.064 215.385 131L215.554 127.378Z" fill="#ED847E"/>
<path d="M218.336 133.026C218.05 133.055 217.761 133.055 217.475 133.026C217.455 133.026 217.436 133.022 217.418 133.015C217.4 133.007 217.384 132.996 217.37 132.983C217.356 132.969 217.345 132.952 217.338 132.934C217.33 132.916 217.327 132.897 217.327 132.878C217.327 132.858 217.33 132.839 217.338 132.821C217.345 132.803 217.356 132.787 217.37 132.773C217.384 132.759 217.4 132.748 217.418 132.741C217.436 132.733 217.455 132.729 217.475 132.729C218.111 132.776 218.749 132.672 219.337 132.427C219.926 132.182 220.449 131.802 220.864 131.317C220.875 131.301 220.89 131.287 220.906 131.276C220.923 131.265 220.942 131.258 220.962 131.254C220.982 131.251 221.002 131.252 221.022 131.257C221.041 131.261 221.059 131.27 221.076 131.282C221.102 131.311 221.117 131.349 221.117 131.388C221.117 131.427 221.102 131.465 221.076 131.494C220.392 132.337 219.412 132.885 218.336 133.026Z" fill="#263238"/>
<path d="M231.044 131.084C230.385 132.116 229.344 132.845 228.149 133.11C226.568 133.449 225.876 132.009 226.398 130.562C226.864 129.263 228.255 127.519 229.808 127.83C230.146 127.903 230.461 128.059 230.723 128.285C230.985 128.511 231.187 128.798 231.31 129.122C231.432 129.445 231.472 129.794 231.426 130.137C231.38 130.479 231.248 130.805 231.044 131.084Z" fill="#FFC3BD"/>
<path d="M221.273 124.985C221.2 124.948 221.145 124.885 221.117 124.808C221.021 124.442 220.839 124.103 220.586 123.821C220.333 123.539 220.017 123.321 219.663 123.184C219.587 123.162 219.522 123.109 219.484 123.039C219.446 122.969 219.436 122.887 219.458 122.81C219.469 122.772 219.487 122.736 219.512 122.705C219.536 122.674 219.567 122.648 219.602 122.628C219.637 122.609 219.675 122.598 219.715 122.594C219.755 122.59 219.795 122.594 219.833 122.606C220.283 122.768 220.688 123.038 221.013 123.39C221.337 123.743 221.572 124.169 221.696 124.632C221.708 124.67 221.712 124.71 221.708 124.749C221.704 124.789 221.692 124.827 221.673 124.862C221.654 124.897 221.628 124.928 221.597 124.953C221.566 124.977 221.53 124.995 221.492 125.006C221.456 125.019 221.418 125.023 221.38 125.019C221.342 125.016 221.306 125.004 221.273 124.985Z" fill="#263238"/>
<path d="M211.813 123.855C211.735 123.864 211.657 123.844 211.594 123.799C211.529 123.751 211.486 123.679 211.474 123.6C211.463 123.521 211.483 123.44 211.53 123.375C211.807 122.984 212.173 122.663 212.597 122.441C213.022 122.219 213.494 122.101 213.973 122.097C214.012 122.099 214.051 122.109 214.087 122.126C214.123 122.143 214.155 122.167 214.181 122.196C214.207 122.226 214.228 122.261 214.24 122.298C214.253 122.336 214.258 122.375 214.255 122.415C214.253 122.455 214.244 122.494 214.227 122.53C214.21 122.566 214.186 122.599 214.156 122.625C214.127 122.652 214.092 122.673 214.055 122.687C214.017 122.7 213.977 122.706 213.938 122.704C213.558 122.71 213.186 122.806 212.852 122.985C212.517 123.165 212.231 123.422 212.017 123.735C211.968 123.801 211.894 123.844 211.813 123.855Z" fill="#263238"/>
<path d="M216.444 323.512C216.369 323.412 216.318 323.297 216.295 323.174C216.271 323.052 216.277 322.926 216.31 322.806C216.323 322.712 216.36 322.624 216.417 322.548C216.473 322.473 216.548 322.414 216.635 322.375C217.404 322.036 219.254 323.272 219.459 323.413C219.482 323.429 219.5 323.452 219.51 323.478C219.52 323.505 219.522 323.534 219.515 323.561C219.509 323.591 219.494 323.619 219.473 323.641C219.452 323.664 219.425 323.68 219.395 323.688C218.555 323.886 217.065 324.147 216.5 323.603C216.476 323.577 216.457 323.546 216.444 323.512ZM218.979 323.455C218.223 322.982 217.143 322.453 216.74 322.629C216.702 322.645 216.67 322.671 216.646 322.705C216.622 322.739 216.608 322.779 216.606 322.82C216.575 322.911 216.569 323.009 216.589 323.104C216.609 323.198 216.654 323.285 216.719 323.356C217.023 323.632 217.856 323.667 218.979 323.441V323.455Z" fill="#FFA41B"/>
<path d="M218.534 322.933C218.08 322.475 217.826 321.855 217.828 321.21C217.86 321.091 217.929 320.986 218.026 320.909C218.123 320.833 218.241 320.79 218.364 320.787C218.477 320.766 218.594 320.773 218.703 320.808C218.813 320.842 218.912 320.903 218.993 320.984C219.635 321.591 219.529 323.427 219.522 323.505C219.519 323.531 219.509 323.556 219.494 323.578C219.48 323.6 219.46 323.618 219.438 323.632C219.415 323.644 219.389 323.651 219.363 323.651C219.338 323.651 219.312 323.644 219.289 323.632C219.002 323.441 218.746 323.205 218.534 322.933ZM218.837 321.281L218.774 321.21C218.723 321.159 218.661 321.121 218.592 321.099C218.523 321.076 218.45 321.071 218.379 321.083C218.188 321.083 218.139 321.196 218.117 321.267C218.004 321.704 218.654 322.735 219.233 323.215C219.28 322.546 219.143 321.878 218.837 321.281Z" fill="#FFA41B"/>
<path d="M228.22 185.468L228.629 187.812C228.7 187.995 228.467 188.172 228.171 188.165L201.724 187.303C201.491 187.303 201.314 187.169 201.314 187.028V184.691C201.314 184.529 201.526 184.402 201.78 184.409L227.811 185.256C227.892 185.249 227.973 185.265 228.046 185.302C228.118 185.34 228.179 185.397 228.22 185.468Z" fill="white"/>
<path d="M224.422 188.292H225.128C225.269 188.292 225.382 188.221 225.382 188.136V185.136C225.382 185.051 225.269 184.973 225.128 184.966H224.422C224.281 184.966 224.168 185.03 224.168 185.122V188.15C224.168 188.214 224.281 188.292 224.422 188.292Z" fill="#FFA41B"/>
<path opacity="0.4" d="M224.422 188.292H225.128C225.269 188.292 225.382 188.221 225.382 188.136V185.136C225.382 185.051 225.269 184.973 225.128 184.966H224.422C224.281 184.966 224.168 185.03 224.168 185.122V188.15C224.168 188.214 224.281 188.292 224.422 188.292Z" fill="white"/>
<path d="M203.665 187.614H204.371C204.512 187.614 204.625 187.543 204.625 187.459V184.43C204.625 184.338 204.512 184.26 204.371 184.26H203.665C203.524 184.26 203.411 184.324 203.411 184.416V187.444C203.411 187.536 203.51 187.614 203.665 187.614Z" fill="#FFA41B"/>
<path opacity="0.4" d="M203.665 187.614H204.371C204.512 187.614 204.625 187.543 204.625 187.459V184.43C204.625 184.338 204.512 184.26 204.371 184.26H203.665C203.524 184.26 203.411 184.324 203.411 184.416V187.444C203.411 187.536 203.51 187.614 203.665 187.614Z" fill="white"/>
<path d="M214.043 187.96H214.749C214.891 187.96 215.004 187.889 215.004 187.805V184.776C215.004 184.684 214.891 184.606 214.749 184.606H214.043C213.902 184.606 213.789 184.67 213.789 184.762V187.79C213.789 187.875 213.902 187.96 214.043 187.96Z" fill="#FFA41B"/>
<path opacity="0.4" d="M214.043 187.96H214.749C214.891 187.96 215.004 187.889 215.004 187.805V184.776C215.004 184.684 214.891 184.606 214.749 184.606H214.043C213.902 184.606 213.789 184.67 213.789 184.762V187.79C213.789 187.875 213.902 187.96 214.043 187.96Z" fill="white"/>
<path d="M234.489 150.986C235.456 155.102 236.226 159.155 236.826 163.32C237.123 165.438 237.405 167.493 237.574 169.625C237.782 171.826 237.838 174.038 237.744 176.247C237.701 176.84 237.645 177.44 237.546 178.083C237.504 178.4 237.426 178.746 237.363 179.078L237.214 179.636C237.151 179.876 237.07 180.112 236.974 180.342C236.701 181.014 236.281 181.617 235.746 182.107C235.309 182.502 234.813 182.829 234.277 183.074C233.512 183.412 232.696 183.625 231.863 183.702C230.616 183.813 229.361 183.782 228.121 183.611C227.012 183.467 225.912 183.264 224.824 183.004C220.695 181.986 216.675 180.567 212.822 178.768C212.42 178.586 212.1 178.263 211.922 177.859C211.745 177.456 211.722 177.001 211.86 176.582C211.997 176.163 212.285 175.81 212.667 175.591C213.049 175.371 213.499 175.301 213.93 175.393H213.987C217.905 176.226 221.929 177.024 225.777 177.454C226.73 177.56 227.683 177.624 228.601 177.645C229.402 177.68 230.205 177.628 230.994 177.49C231.185 177.462 231.368 177.395 231.531 177.292C231.531 177.292 231.46 177.292 231.34 177.405C231.178 177.541 231.05 177.712 230.966 177.906C230.903 178.083 230.966 177.906 230.966 177.906V177.716L231.03 177.2C231.03 176.819 231.072 176.402 231.079 175.965C231.045 174.075 230.901 172.189 230.649 170.317C230.394 168.361 230.119 166.391 229.773 164.415C229.067 160.475 228.298 156.465 227.479 152.568V152.526C227.31 151.611 227.503 150.667 228.017 149.891C228.53 149.116 229.325 148.57 230.232 148.368C231.14 148.166 232.091 148.324 232.884 148.808C233.678 149.292 234.254 150.066 234.489 150.965V150.986Z" fill="#4157FF"/>
<path d="M208.798 170.402L206.645 170.035C206.48 170.007 206.311 170.013 206.148 170.052C205.985 170.091 205.832 170.161 205.696 170.26C205.561 170.359 205.447 170.483 205.36 170.626C205.273 170.769 205.215 170.928 205.191 171.094L204.718 174.285C204.677 174.564 204.731 174.849 204.872 175.094C205.013 175.338 205.232 175.528 205.494 175.633L209.271 177.158C209.271 177.158 212.378 179.587 214.842 178.436V175.803L211.749 172.089C210.996 171.195 209.951 170.597 208.798 170.402Z" fill="#263238"/>
<path d="M219.197 125.867L217.983 125.451C217.983 125.451 218.569 126.446 219.197 125.867Z" fill="#263238"/>
<path d="M224.302 131.346L225.481 133.824C225.564 133.987 225.596 134.172 225.572 134.353C225.431 135.695 227.733 140.884 215.088 140.305C211.375 140.128 210.93 133.04 211.311 130.809C211.338 130.624 211.42 130.451 211.546 130.313C211.671 130.175 211.836 130.077 212.017 130.033L214.742 129.44C214.855 129.422 214.969 129.422 215.081 129.44L223.596 130.852C223.745 130.87 223.887 130.925 224.01 131.011C224.133 131.098 224.233 131.212 224.302 131.346Z" fill="white"/>
</g>
<defs>
<linearGradient id="paint0_linear_1_2785" x1="145.5" y1="0" x2="145.5" y2="340" gradientUnits="userSpaceOnUse">
<stop stop-color="#73B2FF"/>
<stop offset="1" stop-color="#4D61FF"/>
</linearGradient>
</defs>
</svg>
