<svg width="135" height="126" viewBox="0 0 135 126" fill="none" xmlns="http://www.w3.org/2000/svg">
<circle cx="63" cy="63" r="63" fill="#EFF7FF"/>
<path d="M29.7007 22.3442C29.7007 20.4425 31.2424 18.9008 33.1442 18.9008H39.4686C42.1659 18.9008 44.3525 21.0874 44.3525 23.7847V25.7877H33.1442C31.2424 25.7877 29.7007 24.246 29.7007 22.3442Z" fill="#F4F8FB"/>
<path d="M132.083 40.7697H48.4419L56.9743 87.343C57.3223 89.2425 58.9777 90.6222 60.9088 90.6222H119.306C123.213 90.6222 126.549 87.8002 127.196 83.9472L134.056 43.101C134.261 41.8812 133.32 40.7697 132.083 40.7697Z" fill="white"/>
<path d="M53.9618 40.7702H133.26C133.881 40.7702 134.351 41.3293 134.246 41.9406L126.843 84.7469C126.18 88.5823 122.853 91.3838 118.96 91.3838H62.3346C58.9261 91.3838 56.0131 88.9287 55.4357 85.5695L45.2176 26.1185M45.2176 26.1185L44.5906 22.4706C44.1782 20.0711 42.0975 18.3175 39.6628 18.3175H33.5069C31.3527 18.3175 29.6064 20.0638 29.6064 22.218V22.218C29.6064 24.3722 31.3527 26.1185 33.5069 26.1185H45.2176Z" stroke="#A7B4CF"/>
<line x1="56.9351" y1="58.5366" x2="125.196" y2="58.5366" stroke="#A7B4CF" stroke-linecap="round" stroke-linejoin="round"/>
<line x1="58.6475" y1="73.5689" x2="122.531" y2="73.5689" stroke="#A7B4CF" stroke-linecap="round" stroke-linejoin="round"/>
<line x1="69.7335" y1="47.3035" x2="73.624" y2="83.9834" stroke="#A7B4CF" stroke-linecap="round" stroke-linejoin="round"/>
<line x1="0.5" y1="-0.5" x2="37.3856" y2="-0.5" transform="matrix(-0.105474 0.994422 0.994422 0.105474 114.089 46.859)" stroke="#A7B4CF" stroke-linecap="round" stroke-linejoin="round"/>
<path d="M66.3301 102.99L68.1867 100.205C68.9286 99.0924 70.1775 98.424 71.5149 98.424H120.939" stroke="#A7B4CF"/>
<line x1="91.5659" y1="47.359" x2="91.5659" y2="84.0334" stroke="#A7B4CF" stroke-linecap="round" stroke-linejoin="round"/>
<circle cx="60.4316" cy="111.363" r="5.39836" fill="#DCE0EB" stroke="#A7B4CF"/>
<circle cx="115.041" cy="111.363" r="5.39836" fill="#DCE0EB" stroke="#A7B4CF"/>
<line x1="29.606" y1="63.4835" x2="41.9744" y2="63.4835" stroke="#1987FB"/>
<line x1="33.7925" y1="84.0329" x2="46.1609" y2="84.0329" stroke="#1987FB"/>
<line x1="37.0269" y1="73.5689" x2="44.2577" y2="73.5689" stroke="#1987FB"/>
</svg>
