<svg width="246" height="197" viewBox="0 0 246 197" fill="none" xmlns="http://www.w3.org/2000/svg">
<circle cx="121.181" cy="107" r="49" fill="#4157FF"/>
<g filter="url(#filter0_d_1_763)">
<path d="M104.181 110.5L116.231 121L138.181 93" stroke="white" stroke-width="5" stroke-linecap="round" stroke-linejoin="round"/>
</g>
<rect x="126.364" y="29.2646" width="4.90082" height="5.71762" rx="1" transform="rotate(-10.9119 126.364 29.2646)" fill="url(#paint0_linear_1_763)"/>
<rect x="203.363" y="151.446" width="4.90082" height="5.71762" rx="1" transform="rotate(29.09 203.363 151.446)" fill="url(#paint1_linear_1_763)"/>
<rect x="65.8157" y="189.33" width="4.90082" height="5.71762" rx="1" transform="rotate(29.09 65.8157 189.33)" fill="url(#paint2_linear_1_763)"/>
<rect x="93.7145" y="45.3257" width="2.2612" height="2.63806" rx="1" fill="url(#paint3_linear_1_763)"/>
<rect x="199.983" y="26.6603" width="4.16433" height="4.85839" rx="1" transform="rotate(27 199.983 26.6603)" fill="url(#paint4_linear_1_763)"/>
<rect x="193.545" y="47.9943" width="2.2612" height="2.63806" rx="1" fill="url(#paint5_linear_1_763)"/>
<rect x="186.872" y="147.099" width="2.2612" height="2.63806" rx="1" fill="url(#paint6_linear_1_763)"/>
<rect x="204.979" y="108.982" width="2.2612" height="2.63806" rx="1" fill="url(#paint7_linear_1_763)"/>
<rect x="230.709" y="74.6768" width="2.2612" height="2.63806" rx="1" fill="url(#paint8_linear_1_763)"/>
<rect x="209.743" y="135.664" width="2.2612" height="2.63806" rx="1" fill="url(#paint9_linear_1_763)"/>
<rect x="163.181" y="186" width="2.2612" height="2.63806" rx="1" fill="url(#paint10_linear_1_763)"/>
<rect x="67.6403" y="35.8156" width="3.22878" height="3.76691" rx="1" transform="rotate(-22.65 67.6403 35.8156)" fill="url(#paint11_linear_1_763)"/>
<rect x="6.31018" y="170.402" width="3.22878" height="3.76691" rx="1" transform="rotate(17.3473 6.31018 170.402)" fill="url(#paint12_linear_1_763)"/>
<rect x="57.7006" y="58.4766" width="1.22278" height="1.42657" rx="0.611389" transform="rotate(17.3473 57.7006 58.4766)" fill="url(#paint13_linear_1_763)"/>
<rect x="182.534" y="66.0999" width="1.22278" height="1.42657" rx="0.611389" transform="rotate(17.3473 182.534 66.0999)" fill="url(#paint14_linear_1_763)"/>
<rect x="233.039" y="88.0175" width="1.22278" height="1.42657" rx="0.611389" transform="rotate(17.3473 233.039 88.0175)" fill="url(#paint15_linear_1_763)"/>
<rect x="67.8157" y="147.449" width="1.22278" height="1.42657" rx="0.611389" transform="rotate(17.3473 67.8157 147.449)" fill="url(#paint16_linear_1_763)"/>
<rect x="23.3942" y="13.6885" width="1.22278" height="1.42657" rx="0.611389" transform="rotate(17.3473 23.3942 13.6885)" fill="url(#paint17_linear_1_763)"/>
<rect x="32.3514" y="105.852" width="2.32195" height="2.70894" rx="1" transform="rotate(17.3473 32.3514 105.852)" fill="url(#paint18_linear_1_763)"/>
<rect x="35.3478" y="140.317" width="2.32195" height="2.70894" rx="1" transform="rotate(17.3473 35.3478 140.317)" fill="url(#paint19_linear_1_763)"/>
<rect x="103.813" y="173.551" width="2.32195" height="2.70894" rx="1" transform="rotate(17.3473 103.813 173.551)" fill="url(#paint20_linear_1_763)"/>
<rect x="143.207" y="12.7358" width="3.22878" height="3.76691" rx="1" transform="rotate(17.3473 143.207 12.7358)" fill="url(#paint21_linear_1_763)"/>
<rect x="44.4252" y="45.1351" width="4.15966" height="4.85293" rx="1" transform="rotate(17.3473 44.4252 45.1351)" fill="url(#paint22_linear_1_763)"/>
<rect x="120.548" y="4.51996" width="4.15966" height="4.85293" rx="1" transform="rotate(-92.65 120.548 4.51996)" fill="url(#paint23_linear_1_763)"/>
<rect x="9.8233" y="85.7149" width="6.4143" height="7.48335" rx="1" transform="rotate(135.279 9.8233 85.7149)" fill="url(#paint24_linear_1_763)"/>
<rect x="237.378" y="178.839" width="6.4143" height="7.48335" rx="1" transform="rotate(-11.7361 237.378 178.839)" fill="url(#paint25_linear_1_763)"/>
<defs>
<filter id="filter0_d_1_763" x="98.6806" y="90.4999" width="45.0002" height="40.0001" filterUnits="userSpaceOnUse" color-interpolation-filters="sRGB">
<feFlood flood-opacity="0" result="BackgroundImageFix"/>
<feColorMatrix in="SourceAlpha" type="matrix" values="0 0 0 0 0 0 0 0 0 0 0 0 0 0 0 0 0 0 127 0" result="hardAlpha"/>
<feOffset dy="4"/>
<feGaussianBlur stdDeviation="1.5"/>
<feColorMatrix type="matrix" values="0 0 0 0 0 0 0 0 0 0 0 0 0 0 0 0 0 0 0.15 0"/>
<feBlend mode="normal" in2="BackgroundImageFix" result="effect1_dropShadow_1_763"/>
<feBlend mode="normal" in="SourceGraphic" in2="effect1_dropShadow_1_763" result="shape"/>
</filter>
<linearGradient id="paint0_linear_1_763" x1="128.815" y1="29.2646" x2="128.815" y2="34.9822" gradientUnits="userSpaceOnUse">
<stop stop-color="#4157FF"/>
<stop offset="1" stop-color="#A3ADFF"/>
</linearGradient>
<linearGradient id="paint1_linear_1_763" x1="205.814" y1="151.446" x2="205.814" y2="157.164" gradientUnits="userSpaceOnUse">
<stop stop-color="#4157FF"/>
<stop offset="1" stop-color="#A3ADFF"/>
</linearGradient>
<linearGradient id="paint2_linear_1_763" x1="68.2661" y1="189.33" x2="68.2661" y2="195.048" gradientUnits="userSpaceOnUse">
<stop stop-color="#4157FF"/>
<stop offset="1" stop-color="#A3ADFF"/>
</linearGradient>
<linearGradient id="paint3_linear_1_763" x1="94.8451" y1="45.3257" x2="94.8451" y2="47.9637" gradientUnits="userSpaceOnUse">
<stop stop-color="#4157FF"/>
<stop offset="1" stop-color="#A3ADFF"/>
</linearGradient>
<linearGradient id="paint4_linear_1_763" x1="202.065" y1="26.6603" x2="202.065" y2="31.5187" gradientUnits="userSpaceOnUse">
<stop stop-color="#4157FF"/>
<stop offset="1" stop-color="#A3ADFF"/>
</linearGradient>
<linearGradient id="paint5_linear_1_763" x1="194.675" y1="47.9943" x2="194.675" y2="50.6324" gradientUnits="userSpaceOnUse">
<stop stop-color="#4157FF"/>
<stop offset="1" stop-color="#A3ADFF"/>
</linearGradient>
<linearGradient id="paint6_linear_1_763" x1="188.003" y1="147.099" x2="188.003" y2="149.738" gradientUnits="userSpaceOnUse">
<stop stop-color="#4157FF"/>
<stop offset="1" stop-color="#A3ADFF"/>
</linearGradient>
<linearGradient id="paint7_linear_1_763" x1="206.11" y1="108.982" x2="206.11" y2="111.62" gradientUnits="userSpaceOnUse">
<stop stop-color="#4157FF"/>
<stop offset="1" stop-color="#A3ADFF"/>
</linearGradient>
<linearGradient id="paint8_linear_1_763" x1="231.84" y1="74.6768" x2="231.84" y2="77.3148" gradientUnits="userSpaceOnUse">
<stop stop-color="#4157FF"/>
<stop offset="1" stop-color="#A3ADFF"/>
</linearGradient>
<linearGradient id="paint9_linear_1_763" x1="210.873" y1="135.664" x2="210.873" y2="138.302" gradientUnits="userSpaceOnUse">
<stop stop-color="#4157FF"/>
<stop offset="1" stop-color="#A3ADFF"/>
</linearGradient>
<linearGradient id="paint10_linear_1_763" x1="164.311" y1="186" x2="164.311" y2="188.638" gradientUnits="userSpaceOnUse">
<stop stop-color="#4157FF"/>
<stop offset="1" stop-color="#A3ADFF"/>
</linearGradient>
<linearGradient id="paint11_linear_1_763" x1="69.2546" y1="35.8156" x2="69.2546" y2="39.5825" gradientUnits="userSpaceOnUse">
<stop stop-color="#4157FF"/>
<stop offset="1" stop-color="#A3ADFF"/>
</linearGradient>
<linearGradient id="paint12_linear_1_763" x1="7.92457" y1="170.402" x2="7.92457" y2="174.169" gradientUnits="userSpaceOnUse">
<stop stop-color="#4157FF"/>
<stop offset="1" stop-color="#A3ADFF"/>
</linearGradient>
<linearGradient id="paint13_linear_1_763" x1="58.3119" y1="58.4766" x2="58.3119" y2="59.9032" gradientUnits="userSpaceOnUse">
<stop stop-color="#4157FF"/>
<stop offset="1" stop-color="#A3ADFF"/>
</linearGradient>
<linearGradient id="paint14_linear_1_763" x1="183.145" y1="66.0999" x2="183.145" y2="67.5265" gradientUnits="userSpaceOnUse">
<stop stop-color="#4157FF"/>
<stop offset="1" stop-color="#A3ADFF"/>
</linearGradient>
<linearGradient id="paint15_linear_1_763" x1="233.65" y1="88.0175" x2="233.65" y2="89.444" gradientUnits="userSpaceOnUse">
<stop stop-color="#4157FF"/>
<stop offset="1" stop-color="#A3ADFF"/>
</linearGradient>
<linearGradient id="paint16_linear_1_763" x1="68.4271" y1="147.449" x2="68.4271" y2="148.875" gradientUnits="userSpaceOnUse">
<stop stop-color="#4157FF"/>
<stop offset="1" stop-color="#A3ADFF"/>
</linearGradient>
<linearGradient id="paint17_linear_1_763" x1="24.0056" y1="13.6885" x2="24.0056" y2="15.1151" gradientUnits="userSpaceOnUse">
<stop stop-color="#4157FF"/>
<stop offset="1" stop-color="#A3ADFF"/>
</linearGradient>
<linearGradient id="paint18_linear_1_763" x1="33.5124" y1="105.852" x2="33.5124" y2="108.561" gradientUnits="userSpaceOnUse">
<stop stop-color="#4157FF"/>
<stop offset="1" stop-color="#A3ADFF"/>
</linearGradient>
<linearGradient id="paint19_linear_1_763" x1="36.5088" y1="140.317" x2="36.5088" y2="143.026" gradientUnits="userSpaceOnUse">
<stop stop-color="#4157FF"/>
<stop offset="1" stop-color="#A3ADFF"/>
</linearGradient>
<linearGradient id="paint20_linear_1_763" x1="104.974" y1="173.551" x2="104.974" y2="176.26" gradientUnits="userSpaceOnUse">
<stop stop-color="#4157FF"/>
<stop offset="1" stop-color="#A3ADFF"/>
</linearGradient>
<linearGradient id="paint21_linear_1_763" x1="144.821" y1="12.7358" x2="144.821" y2="16.5027" gradientUnits="userSpaceOnUse">
<stop stop-color="#4157FF"/>
<stop offset="1" stop-color="#A3ADFF"/>
</linearGradient>
<linearGradient id="paint22_linear_1_763" x1="46.5051" y1="45.1351" x2="46.5051" y2="49.988" gradientUnits="userSpaceOnUse">
<stop stop-color="#4157FF"/>
<stop offset="1" stop-color="#A3ADFF"/>
</linearGradient>
<linearGradient id="paint23_linear_1_763" x1="122.628" y1="4.51996" x2="122.628" y2="9.37289" gradientUnits="userSpaceOnUse">
<stop stop-color="#4157FF"/>
<stop offset="1" stop-color="#A3ADFF"/>
</linearGradient>
<linearGradient id="paint24_linear_1_763" x1="13.0305" y1="85.7149" x2="13.0305" y2="93.1982" gradientUnits="userSpaceOnUse">
<stop stop-color="#4157FF"/>
<stop offset="1" stop-color="#A3ADFF"/>
</linearGradient>
<linearGradient id="paint25_linear_1_763" x1="240.585" y1="178.839" x2="240.585" y2="186.323" gradientUnits="userSpaceOnUse">
<stop stop-color="#4157FF"/>
<stop offset="1" stop-color="#A3ADFF"/>
</linearGradient>
</defs>
</svg>
