<svg width="18" height="18" viewBox="0 0 18 18" fill="none" xmlns="http://www.w3.org/2000/svg">
<path fill-rule="evenodd" clip-rule="evenodd" d="M9 1C13.4181 1 17 4.58187 17 9C17 13.4181 13.4181 17 9 17C4.58187 17 1 13.4181 1 9C1 4.58187 4.58187 1 9 1V1Z" stroke="#091C3F" stroke-width="1.2" stroke-linecap="round" stroke-linejoin="round"/>
<path fill-rule="evenodd" clip-rule="evenodd" d="M9.00002 12.7333C9.58935 12.7333 10.0667 13.2107 10.0667 13.8C10.0667 14.3893 9.58935 14.8667 9.00002 14.8667C8.41068 14.8667 7.93335 14.3893 7.93335 13.8C7.93335 13.2107 8.41068 12.7333 9.00002 12.7333V12.7333Z" stroke="#4157FF" stroke-width="1.2" stroke-linecap="round" stroke-linejoin="round"/>
<path d="M6.54663 5.26667C6.9733 4.30667 7.87996 3.66667 8.99996 3.66667C10.4933 3.66667 11.6666 4.84001 11.6666 6.33334C11.6666 7.82667 10.4933 9.00001 8.99996 9.00001V10.6" stroke="#4157FF" stroke-width="1.2" stroke-linecap="round" stroke-linejoin="round"/>
</svg>
