<svg width="18" height="18" viewBox="0 0 18 18" fill="none" xmlns="http://www.w3.org/2000/svg">
<path d="M5.70947 11.6667V17H14.7761V12.7333" stroke="#091C3F" stroke-width="1.2" stroke-linecap="round" stroke-linejoin="round"/>
<path fill-rule="evenodd" clip-rule="evenodd" d="M12.6428 10.6C12.6428 9.42187 13.598 8.46667 14.7762 8.46667C15.9543 8.46667 16.9095 9.42187 16.9095 10.6C16.9095 11.7781 15.9543 12.7333 14.7762 12.7333C13.598 12.7333 12.6428 11.7781 12.6428 10.6V10.6Z" stroke="#4157FF" stroke-width="1.2" stroke-linecap="round" stroke-linejoin="round"/>
<path d="M8.37574 1.53333H10.4184C10.7459 1.53333 10.996 1.82613 10.9448 2.14986L9.5848 10.7664C9.50267 11.2848 9.05574 11.6667 8.53094 11.6667H3.42054C2.89574 11.6667 2.4488 11.2848 2.36667 10.7664L1.00667 2.14986C0.955469 1.82613 1.2056 1.53333 1.53307 1.53333H3.57574" stroke="#091C3F" stroke-width="1.2" stroke-linecap="round" stroke-linejoin="round"/>
<path d="M3.57593 1V2.6" stroke="#4157FF" stroke-width="1.2" stroke-linecap="round" stroke-linejoin="round"/>
<path d="M8.37598 1V2.6" stroke="#4157FF" stroke-width="1.2" stroke-linecap="round" stroke-linejoin="round"/>
</svg>
